<svg xmlns="http://www.w3.org/2000/svg" viewBox="0 0 241.5 203.25"><defs><style>.cls-1{fill:#1b6575;}.cls-2{fill:#49abbe;}</style></defs><g id="Layer_2" data-name="Layer 2"><g id="Logo"><path class="cls-1" d="M120.26,166.42c-4.33-2-16.76-8.32-23-22.36a43.14,43.14,0,0,1-3.56-19.24c.68-29.33,27.28-51.16,27.28-51.16a125,125,0,0,1,13,15.21c3.22,4.43,11.46,17.19,12.44,30.83C148.25,145.42,122.93,164.47,120.26,166.42Z"/><path class="cls-1" d="M93.64,157.56s-22.49-17.06-4.07-56.62c5.46-11.72-35.48-39.49-58-14.32-4.47,5,10.92,4.14,15.69,30.31s13,29,25.24,34.49S93.64,157.56,93.64,157.56Z"/><path class="cls-1" d="M146.5,158s22.49-17,4.07-56.61c-5.46-11.73,35.48-39.5,58-14.33,4.47,5-10.92,4.15-15.69,30.31s-13,29-25.24,34.49S146.5,158,146.5,158Z"/><path class="cls-1" d="M120.07,203.25s-6-10.07-11.4-19.09c-4.1-6.82,1-13.66,11.4-13.65,7.7,0,12.47,3.07,12.47,9.21s-6.63,12.62-9.55,18.08Z"/><path class="cls-2" d="M93.64,170.51S78,189.61,50.69,181.43c-19.46-5.84-19.9-18.76-28.65-32.06-7-10.7-19.43-12.62-21.82-13s15.27-19.33,32.05-15c14.55,3.75,18.69,29,29.94,36.15C76.2,166.46,93.64,170.51,93.64,170.51Z"/><path class="cls-2" d="M147.87,172.23s15.66,19.09,42.94,10.91c19.46-5.84,19.9-18.76,28.65-32.06,7-10.69,19.44-12.61,21.82-13s-15.26-19.33-32.05-15c-14.55,3.75-18.69,29-29.94,36.15C165.3,168.17,147.87,172.23,147.87,172.23Z"/><path class="cls-2" d="M95,89.69C93.9,85.14,87,79.58,83.71,76.4c-5-4.89-12.11-8.88-12.11-17.4,0-17,32.63-46,48-59,0,0,50.82,40.24,50.82,58,0,6.13-7.51,10.91-12.63,15.68s-12.61,16-12.61,16a117.33,117.33,0,0,0-8.26-13.93c-4-5.75-10.18-12.81-16.83-13.63C110.89,61,101,72.15,95,89.69Z"/></g></g></svg>